<svg xmlns="http://www.w3.org/2000/svg" xmlns:xlink="http://www.w3.org/1999/xlink" version="1.1" x="0px" y="0px" viewBox="0 0 24 30" style="enable-background:new 0 0 24 24;" xml:space="preserve"><title>Calender</title><path d="M19,4h-1V3c0-0.6-0.4-1-1-1s-1,0.4-1,1v1H8V3c0-0.6-0.4-1-1-1S6,2.4,6,3v1H5C3.3,4,2,5.3,2,7v12c0,1.7,1.3,3,3,3h14  c1.7,0,3-1.3,3-3V7C22,5.3,20.7,4,19,4z M5,6h1c0,0.6,0.4,1,1,1s1-0.4,1-1h8c0,0.6,0.4,1,1,1s1-0.4,1-1h1c0.6,0,1,0.4,1,1v1H4V7  C4,6.4,4.4,6,5,6z M19,20H5c-0.6,0-1-0.4-1-1v-9h16v9C20,19.6,19.6,20,19,20z M8.5,12c0,0.6-0.4,1-1,1h-1c-0.6,0-1-0.4-1-1  s0.4-1,1-1h1C8.1,11,8.5,11.4,8.5,12z M13.5,12c0,0.6-0.4,1-1,1h-1c-0.6,0-1-0.4-1-1s0.4-1,1-1h1C13.1,11,13.5,11.4,13.5,12z   M18.5,12c0,0.6-0.4,1-1,1h-1c-0.6,0-1-0.4-1-1s0.4-1,1-1h1C18.1,11,18.5,11.4,18.5,12z M8.5,18c0,0.6-0.4,1-1,1h-1  c-0.6,0-1-0.4-1-1s0.4-1,1-1h1C8.1,17,8.5,17.4,8.5,18z M8.5,15c0,0.6-0.4,1-1,1h-1c-0.6,0-1-0.4-1-1s0.4-1,1-1h1  C8.1,14,8.5,14.4,8.5,15z M13.5,18c0,0.6-0.4,1-1,1h-1c-0.6,0-1-0.4-1-1s0.4-1,1-1h1C13.1,17,13.5,17.4,13.5,18z M18.5,18  c0,0.6-0.4,1-1,1h-1c-0.6,0-1-0.4-1-1s0.4-1,1-1h1C18.1,17,18.5,17.4,18.5,18z M18.5,15c0,0.6-0.4,1-1,1h-1c-0.6,0-1-0.4-1-1  s0.4-1,1-1h1C18.1,14,18.5,14.4,18.5,15z M13.5,15c0,0.6-0.4,1-1,1h-1c-0.6,0-1-0.4-1-1s0.4-1,1-1h1C13.1,14,13.5,14.4,13.5,15z"/><text x="0" y="39" fill="#000000" font-size="5px" font-weight="bold" font-family="'Helvetica Neue', Helvetica, Arial-Unicode, Arial, Sans-serif">Created by Bahri Galeri</text><text x="0" y="44" fill="#000000" font-size="5px" font-weight="bold" font-family="'Helvetica Neue', Helvetica, Arial-Unicode, Arial, Sans-serif">from the Noun Project</text></svg>