<?xml version="1.0" encoding="utf-8"?>
<!-- Generator: Adobe Illustrator 24.0.1, SVG Export Plug-In . SVG Version: 6.00 Build 0)  -->
<svg version="1.1" id="Layer_1" xmlns="http://www.w3.org/2000/svg" xmlns:xlink="http://www.w3.org/1999/xlink" x="0px" y="0px"
	 viewBox="0 0 48 48" style="enable-background:new 0 0 48 48;" xml:space="preserve">
<style type="text/css">
	.st0{fill:none;}
	.st1{fill:#FFFFFF;}
</style>
<path class="st0" d="M0,0h48v48H0V0z"/>
<path class="st1" d="M24,14V6H4v36h40V14H24z M12,38H8v-4h4V38z M12,30H8v-4h4V30z M12,22H8v-4h4V22z M12,14H8v-4h4V14z M20,38h-4
	v-4h4V38z M20,30h-4v-4h4V30z M20,22h-4v-4h4V22z M20,14h-4v-4h4V14z M40,38H24v-4h4v-4h-4v-4h4v-4h-4v-4h16V38z M36,22h-4v4h4V22z
	 M36,30h-4v4h4V30z"/>
</svg>
