<svg id="news" xmlns="http://www.w3.org/2000/svg" width="512" height="511.996" viewBox="0 0 512 511.996">
  <path id="Path_248" data-name="Path 248" d="M94.27,238.867h34.266v34.266H94.27Zm0,0" fill="#fff"/>
  <path id="Path_249" data-name="Path 249" d="M0,456.832A55.226,55.226,0,0,0,55.164,512H456.832A55.227,55.227,0,0,0,512,456.832v-298.3H0ZM207.8,208.867H432.735a15,15,0,0,1,0,30H207.8a15,15,0,0,1,0-30Zm0,64.266H432.735a15,15,0,0,1,0,30H207.8a15,15,0,0,1,0-30ZM64.27,223.867a15,15,0,0,1,15-15h64.266a15,15,0,0,1,15,15v64.266a15,15,0,0,1-15,15H79.27a15,15,0,0,1-15-15Zm15,113.531H432.735a15,15,0,0,1,0,30H79.27a15,15,0,0,1,0-30Zm0,64.27H432.735a15,15,0,0,1,0,30H79.27a15,15,0,0,1,0-30Zm0,0" fill="#fff"/>
  <path id="Path_250" data-name="Path 250" d="M456.832,0H55.164A55.226,55.226,0,0,0,0,55.164v73.367H512V55.164A55.227,55.227,0,0,0,456.832,0ZM368.465,94.266H143.531a15,15,0,0,1,0-30H368.465a15,15,0,0,1,0,30Zm0,0" fill="#fff"/>
</svg>
