<svg id="Layer_1" data-name="Layer 1" xmlns="http://www.w3.org/2000/svg" viewBox="0 0 58.9 81.2"><defs><style>.cls-1{fill:#024f9d;}.cls-2{fill:none;}.cls-3{fill:#fff;}</style></defs><path class="cls-1" d="M66,81H15a13.55,13.55,0,0,1-2.1-1,4.75,4.75,0,0,1-1.8-4.2V16.5a4.05,4.05,0,0,1,4.1-4.1h8.3c.6,0,.7.2.7.8v4.4c0,1.6.5,2.1,2,2.1H54.5c1.6,0,2.1-.5,2.2-2.2V13.3c0-.7.2-.9.9-.9h8a3.9,3.9,0,0,1,4,3.1,9.7,9.7,0,0,1,.1,1.7V76.5a4.5,4.5,0,0,1-3.3,4.2C66.3,80.8,66.1,80.9,66,81ZM50.1,51.9H61.6a1.6,1.6,0,1,0,0-3.2H38.2A1.59,1.59,0,0,0,37,51a1.54,1.54,0,0,0,1.6.9Zm.1-19.8H38.1a1.58,1.58,0,0,0-1.2,1.8,1.61,1.61,0,0,0,1.8,1.4H61.5a1.73,1.73,0,0,0,1.9-1.6,1.58,1.58,0,0,0-1.8-1.6Zm0,36.5H61.6c1.1,0,1.8-.6,1.8-1.5a1.77,1.77,0,0,0-1.8-1.7H39a4.1,4.1,0,0,0-1.1.1,1.61,1.61,0,0,0-.5,2.7,2.3,2.3,0,0,0,1.4.4ZM23.3,50.2a4.35,4.35,0,0,0-.6-.7c-.8-.9-1.6-1.8-2.4-2.6a1.48,1.48,0,0,0-2.2,0,1.57,1.57,0,0,0-.1,2.2c1.4,1.5,2.8,3,4.3,4.5a1.37,1.37,0,0,0,2.1,0c2.6-2.5,5.2-4.9,7.7-7.4a2.07,2.07,0,0,0,.6-1A1.58,1.58,0,0,0,30,43.8Zm.1,16.6c-1-1.1-1.9-2.1-2.9-3.1a1.53,1.53,0,0,0-2.3-.1,1.63,1.63,0,0,0,0,2.4c1.3,1.4,2.6,2.8,3.9,4.1a1.5,1.5,0,0,0,2.4,0l6.9-6.6.9-.9a1.59,1.59,0,0,0-2.2-2.3c-.4.3-.7.7-1.1,1C27.2,63.1,25.3,64.9,23.4,66.8Zm0-33.3-2.9-3.2a1.46,1.46,0,0,0-2.3-.1,1.52,1.52,0,0,0,0,2.3c1.3,1.4,2.7,2.8,4,4.2a1.36,1.36,0,0,0,2.2,0c.6-.6,1.2-1.2,1.9-1.8,1.9-1.9,3.9-3.7,5.8-5.6a1.57,1.57,0,0,0,.5-1.8,2,2,0,0,0-1.2-1,1.83,1.83,0,0,0-1.5.6C27.7,29.3,25.6,31.4,23.4,33.5Z" transform="translate(-11.1 0.1)"/><path class="cls-2" d="M66,81a1.42,1.42,0,0,1,.6-.2,4.5,4.5,0,0,0,3.3-4.2V17.3a9.15,9.15,0,0,0-.1-1.7,4.06,4.06,0,0,0-4-3.1h-8c-.6,0-.9.1-.9.9.1,1.4,0,2.8,0,4.2,0,1.7-.5,2.2-2.2,2.2H26.4c-1.5,0-2-.5-2-2.1V13.3c0-.6-.1-.8-.7-.8H15.4a4.12,4.12,0,0,0-4.1,4.1V75.9a4.75,4.75,0,0,0,1.8,4.2,8.11,8.11,0,0,0,2.1,1h-4V.1H39.7c-.1,0-.1.1-.2.1A5.84,5.84,0,0,0,34.6,5,1.52,1.52,0,0,1,33,6.2H27.5V16.4H53.6V6.2h-5c-1.5,0-1.9-.3-2.3-1.8A6,6,0,0,0,42.2.2l-.9-.3C50.8,0,60.4,0,70,0V81Z" transform="translate(-11.1 0.1)"/><path class="cls-1" d="M41.3,0l.9.3a5.81,5.81,0,0,1,4.1,4.2c.4,1.4.8,1.8,2.3,1.8h5V16.5H27.5V6.3H33a1.62,1.62,0,0,0,1.6-1.2A5.84,5.84,0,0,1,39.5.3c.1,0,.1-.1.2-.1A3.9,3.9,0,0,1,41.3,0Z" transform="translate(-11.1 0.1)"/><path class="cls-3" d="M50.1,51.9H38.7a1.54,1.54,0,0,1-1.6-.9,1.59,1.59,0,0,1,1.2-2.3H61.7a1.6,1.6,0,1,1,0,3.2Z" transform="translate(-11.1 0.1)"/><path class="cls-3" d="M50.2,32.1H61.5a1.58,1.58,0,0,1,1.8,1.6c0,1-.7,1.6-1.9,1.6H38.6a1.68,1.68,0,0,1-1.8-1.4A1.65,1.65,0,0,1,38,32.1c.2-.1.5,0,.8,0Z" transform="translate(-11.1 0.1)"/><path class="cls-3" d="M50.2,68.6H38.9a2.3,2.3,0,0,1-1.4-.4,1.58,1.58,0,0,1,.5-2.7,3.75,3.75,0,0,1,1.1-.1H61.7a1.66,1.66,0,0,1,1.8,1.7c0,.9-.7,1.5-1.8,1.5Z" transform="translate(-11.1 0.1)"/><path class="cls-3" d="M23.3,50.2c2.3-2.2,4.5-4.3,6.6-6.4a1.42,1.42,0,0,1,1.9-.3,1.54,1.54,0,0,1,.8,1.7,2.07,2.07,0,0,1-.6,1l-7.7,7.4a1.37,1.37,0,0,1-2.1,0c-1.4-1.5-2.9-2.9-4.3-4.5a1.57,1.57,0,0,1,.1-2.2,1.48,1.48,0,0,1,2.2,0c.8.8,1.6,1.7,2.4,2.6A2.34,2.34,0,0,1,23.3,50.2Z" transform="translate(-11.1 0.1)"/><path class="cls-3" d="M23.4,66.8c1.9-1.8,3.8-3.7,5.7-5.5.4-.3.7-.7,1.1-1a1.59,1.59,0,0,1,2.2,2.3l-.9.9-6.9,6.6a1.5,1.5,0,0,1-2.4,0c-1.3-1.4-2.6-2.7-3.9-4.1a1.63,1.63,0,0,1,0-2.4,1.6,1.6,0,0,1,2.3.1Z" transform="translate(-11.1 0.1)"/><path class="cls-3" d="M23.4,33.5c2.2-2.1,4.3-4.2,6.5-6.2a2.2,2.2,0,0,1,1.5-.6,2,2,0,0,1,1.2,1,1.47,1.47,0,0,1-.5,1.8c-1.9,1.8-3.9,3.7-5.8,5.6-.6.6-1.2,1.2-1.9,1.8s-1.5.8-2.2,0c-1.4-1.4-2.7-2.8-4-4.2a1.52,1.52,0,0,1,0-2.3,1.46,1.46,0,0,1,2.3.1C21.4,31.4,22.4,32.4,23.4,33.5Z" transform="translate(-11.1 0.1)"/></svg>