<?xml version="1.0" encoding="utf-8"?>
<!-- Generator: Adobe Illustrator 24.2.1, SVG Export Plug-In . SVG Version: 6.00 Build 0)  -->
<svg version="1.1" id="Layer_1" xmlns="http://www.w3.org/2000/svg" xmlns:xlink="http://www.w3.org/1999/xlink" x="0px" y="0px"
	 viewBox="0 0 81 81" style="enable-background:new 0 0 81 81;" xml:space="preserve">
<style type="text/css">
	.st0{fill:#024F9D;}
	.st1{fill:#FFFFFF;}
</style>
<g>
	<path class="st0" d="M66,81C49,81,32,81,15,81c-0.7-0.3-1.5-0.6-2.1-1c-1.4-1-1.8-2.5-1.8-4.2c0-19.6,0-39.1,0-58.7
		c0-0.2,0-0.4,0-0.6c0.1-2.4,1.8-4.1,4.1-4.1c2.8,0,5.5,0,8.3,0c0.6,0,0.7,0.2,0.7,0.8c0,1.5,0,3,0,4.4c0,1.6,0.5,2.1,2,2.1
		c9.4,0,18.9,0,28.3,0c1.6,0,2.1-0.5,2.2-2.2c0-1.4,0-2.8,0-4.2c0-0.7,0.2-0.9,0.9-0.9c2.7,0,5.3,0,8,0c2,0,3.6,1.2,4,3.1
		c0.1,0.6,0.1,1.1,0.1,1.7c0,19.5,0,38.9,0,58.4c0,0.3,0,0.6,0,0.9c-0.1,2-1.4,3.7-3.3,4.2C66.3,80.8,66.1,80.9,66,81z M50.1,51.9
		c3.8,0,7.7,0,11.5,0c1,0,1.7-0.7,1.7-1.6c0-0.9-0.7-1.6-1.7-1.6c-0.2,0-0.3,0-0.5,0c-7.4,0-14.7,0-22.1,0c-0.3,0-0.6,0-0.8,0
		c-1.1,0.2-1.7,1.3-1.2,2.3c0.3,0.7,0.9,0.9,1.6,0.9C42.5,51.9,46.3,51.9,50.1,51.9z M50.2,32.1c-3.8,0-7.5,0-11.3,0
		c-0.3,0-0.5,0-0.8,0c-0.8,0.2-1.3,0.9-1.2,1.8c0.1,0.9,0.8,1.4,1.8,1.4c7.6,0,15.2,0,22.8,0c1.1,0,1.9-0.7,1.9-1.6
		c0-1-0.7-1.6-1.8-1.6C57.7,32.1,54,32.1,50.2,32.1z M50.2,68.6c3.8,0,7.6,0,11.4,0c1.1,0,1.8-0.6,1.8-1.5c0-0.9-0.7-1.6-1.8-1.7
		c-0.1,0-0.2,0-0.3,0c-7.4,0-14.9,0-22.3,0c-0.4,0-0.7,0-1.1,0.1c-1.1,0.4-1.4,1.9-0.5,2.7c0.4,0.3,0.9,0.4,1.4,0.4
		C42.6,68.6,46.4,68.6,50.2,68.6z M23.3,50.2c-0.2-0.3-0.4-0.5-0.6-0.7c-0.8-0.9-1.6-1.8-2.4-2.6c-0.7-0.7-1.6-0.6-2.2,0
		c-0.6,0.6-0.7,1.5-0.1,2.2c1.4,1.5,2.8,3,4.3,4.5c0.7,0.7,1.4,0.6,2.1,0c2.6-2.5,5.2-4.9,7.7-7.4c0.3-0.3,0.5-0.6,0.6-1
		c0.1-0.7-0.1-1.3-0.8-1.7c-0.7-0.4-1.3-0.2-1.9,0.3C27.8,45.9,25.6,48,23.3,50.2z M23.4,66.8c-1-1.1-1.9-2.1-2.9-3.1
		c-0.7-0.7-1.7-0.8-2.3-0.1c-0.7,0.7-0.7,1.6,0,2.4c1.3,1.4,2.6,2.8,3.9,4.1c0.8,0.8,1.5,0.8,2.4,0c2.3-2.2,4.6-4.4,6.9-6.6
		c0.3-0.3,0.6-0.6,0.9-0.9c0.6-0.7,0.6-1.6,0-2.2c-0.6-0.6-1.5-0.7-2.2-0.1c-0.4,0.3-0.7,0.7-1.1,1C27.2,63.1,25.3,64.9,23.4,66.8z
		 M23.4,33.5c-1-1.1-1.9-2.1-2.9-3.2c-0.7-0.8-1.6-0.8-2.3-0.1c-0.7,0.7-0.7,1.6,0,2.3c1.3,1.4,2.7,2.8,4,4.2c0.7,0.8,1.5,0.7,2.2,0
		c0.6-0.6,1.2-1.2,1.9-1.8c1.9-1.9,3.9-3.7,5.8-5.6c0.5-0.5,0.8-1.1,0.5-1.8c-0.2-0.5-0.8-0.9-1.2-1c-0.5-0.1-1.1,0.2-1.5,0.6
		C27.7,29.3,25.6,31.4,23.4,33.5z"/>
	<path class="st1" d="M66,81c0.2-0.1,0.4-0.2,0.6-0.2c1.9-0.5,3.2-2.2,3.3-4.2c0-0.3,0-0.6,0-0.9c0-19.5,0-38.9,0-58.4
		c0-0.6,0-1.2-0.1-1.7c-0.5-1.9-2.1-3.1-4-3.1c-2.7,0-5.3,0-8,0c-0.6,0-0.9,0.1-0.9,0.9c0.1,1.4,0,2.8,0,4.2c0,1.7-0.5,2.2-2.2,2.2
		c-9.4,0-18.9,0-28.3,0c-1.5,0-2-0.5-2-2.1c0-1.5,0-3,0-4.4c0-0.6-0.1-0.8-0.7-0.8c-2.8,0-5.5,0-8.3,0c-2.3,0-4,1.8-4.1,4.1
		c0,0.2,0,0.4,0,0.6c0,19.6,0,39.1,0,58.7c0,1.7,0.4,3.2,1.8,4.2c0.6,0.5,1.4,0.7,2.1,1c-1.3,0-2.7,0-4,0c0-27,0-54,0-81
		c9.5,0,19,0,28.5,0c-0.1,0-0.1,0.1-0.2,0.1c-2.6,0.5-4.3,2.1-4.9,4.8c-0.2,0.8-0.8,1.2-1.6,1.2c-1,0-1.9,0-2.9,0
		c-0.9,0-1.7,0-2.6,0c0,3.5,0,6.8,0,10.2c8.7,0,17.4,0,26.1,0c0-3.4,0-6.8,0-10.2c-1.7,0-3.4,0-5,0c-1.5,0-1.9-0.3-2.3-1.8
		c-0.6-2.1-2-3.5-4.1-4.2c-0.3-0.1-0.6-0.2-0.9-0.3C50.8,0,60.4,0,70,0c0,27,0,54,0,81C68.6,81,67.3,81,66,81z"/>
	<path class="st0" d="M41.3,0c0.3,0.1,0.6,0.2,0.9,0.3c2.1,0.6,3.4,2,4.1,4.2c0.4,1.4,0.8,1.8,2.3,1.8c1.7,0,3.3,0,5,0
		c0,3.4,0,6.8,0,10.2c-8.7,0-17.4,0-26.1,0c0-3.4,0-6.7,0-10.2c0.9,0,1.7,0,2.6,0c1,0,1.9,0,2.9,0c0.8,0,1.4-0.5,1.6-1.2
		c0.6-2.7,2.3-4.3,4.9-4.8c0.1,0,0.1-0.1,0.2-0.1C40.1,0,40.7,0,41.3,0z"/>
	<path class="st1" d="M50.1,51.9c-3.8,0-7.6,0-11.4,0c-0.7,0-1.3-0.2-1.6-0.9c-0.5-1,0.1-2.1,1.2-2.3c0.3,0,0.6,0,0.8,0
		c7.4,0,14.7,0,22.1,0c0.2,0,0.3,0,0.5,0c1,0,1.7,0.7,1.7,1.6c0,0.9-0.7,1.6-1.7,1.6C57.8,51.9,54,51.9,50.1,51.9z"/>
	<path class="st1" d="M50.2,32.1c3.8,0,7.6,0,11.3,0c1.1,0,1.8,0.6,1.8,1.6c0,1-0.7,1.6-1.9,1.6c-7.6,0-15.2,0-22.8,0
		c-1,0-1.7-0.6-1.8-1.4c-0.1-0.8,0.4-1.6,1.2-1.8c0.2-0.1,0.5,0,0.8,0C42.7,32.1,46.4,32.1,50.2,32.1z"/>
	<path class="st1" d="M50.2,68.6c-3.8,0-7.6,0-11.3,0c-0.5,0-1-0.1-1.4-0.4c-0.9-0.7-0.7-2.3,0.5-2.7c0.3-0.1,0.7-0.1,1.1-0.1
		c7.4,0,14.9,0,22.3,0c0.1,0,0.2,0,0.3,0c1.1,0,1.8,0.7,1.8,1.7c0,0.9-0.7,1.5-1.8,1.5C57.8,68.6,54,68.6,50.2,68.6z"/>
	<path class="st1" d="M23.3,50.2c2.3-2.2,4.5-4.3,6.6-6.4c0.6-0.6,1.2-0.7,1.9-0.3c0.6,0.3,0.9,0.9,0.8,1.7c-0.1,0.4-0.3,0.7-0.6,1
		c-2.6,2.5-5.1,4.9-7.7,7.4c-0.7,0.6-1.4,0.7-2.1,0c-1.4-1.5-2.9-2.9-4.3-4.5c-0.6-0.7-0.5-1.6,0.1-2.2c0.6-0.6,1.6-0.7,2.2,0
		c0.8,0.8,1.6,1.7,2.4,2.6C22.9,49.7,23.1,49.9,23.3,50.2z"/>
	<path class="st1" d="M23.4,66.8c1.9-1.8,3.8-3.7,5.7-5.5c0.4-0.3,0.7-0.7,1.1-1c0.7-0.6,1.6-0.5,2.2,0.1c0.6,0.6,0.6,1.5,0,2.2
		c-0.3,0.3-0.6,0.6-0.9,0.9c-2.3,2.2-4.6,4.4-6.9,6.6c-0.8,0.8-1.5,0.8-2.4,0c-1.3-1.4-2.6-2.7-3.9-4.1c-0.7-0.8-0.7-1.7,0-2.4
		c0.7-0.6,1.6-0.6,2.3,0.1C21.5,64.7,22.4,65.7,23.4,66.8z"/>
	<path class="st1" d="M23.4,33.5c2.2-2.1,4.3-4.2,6.5-6.2c0.4-0.3,1-0.7,1.5-0.6c0.5,0.1,1,0.6,1.2,1c0.3,0.6,0.1,1.3-0.5,1.8
		c-1.9,1.8-3.9,3.7-5.8,5.6c-0.6,0.6-1.2,1.2-1.9,1.8c-0.8,0.7-1.5,0.8-2.2,0c-1.4-1.4-2.7-2.8-4-4.2c-0.7-0.7-0.7-1.7,0-2.3
		c0.7-0.7,1.6-0.7,2.3,0.1C21.4,31.4,22.4,32.4,23.4,33.5z"/>
</g>
</svg>
